<svg width="1200" height="630" viewBox="0 0 1200 630" fill="none" xmlns="http://www.w3.org/2000/svg" xmlns:xlink="http://www.w3.org/1999/xlink">
  <defs>
    <style>
      @import url('https://fonts.googleapis.com/css2?family=Great+Vibes&amp;family=Jost:wght@300;400&amp;family=Cormorant+Garamond:ital,wght@1,300&amp;display=swap');
    </style>
    <radialGradient id="bg1" cx="25%" cy="40%" r="55%">
      <stop offset="0%" stop-color="#EDD8CC" stop-opacity=".55"/>
      <stop offset="100%" stop-color="#F6F1E8" stop-opacity="0"/>
    </radialGradient>
    <radialGradient id="bg2" cx="78%" cy="62%" r="50%">
      <stop offset="0%" stop-color="#EDE4D4" stop-opacity=".42"/>
      <stop offset="100%" stop-color="#F6F1E8" stop-opacity="0"/>
    </radialGradient>
    <radialGradient id="bg3" cx="50%" cy="88%" r="45%">
      <stop offset="0%" stop-color="#E8D8C8" stop-opacity=".3"/>
      <stop offset="100%" stop-color="#F6F1E8" stop-opacity="0"/>
    </radialGradient>
    <linearGradient id="botFade" x1="0%" y1="0%" x2="100%" y2="0%">
      <stop offset="0%" stop-color="#F6F1E8" stop-opacity="1"/>
      <stop offset="22%" stop-color="#F6F1E8" stop-opacity="0"/>
    </linearGradient>
  </defs>

  <!-- Background -->
  <rect width="1200" height="630" fill="#F6F1E8"/>
  <rect width="1200" height="630" fill="url(#bg1)"/>
  <rect width="1200" height="630" fill="url(#bg2)"/>
  <rect width="1200" height="630" fill="url(#bg3)"/>

  <!-- Subtle petal shapes -->
  <ellipse cx="60" cy="80" rx="90" ry="120" fill="#E8D8D0" opacity=".12" transform="rotate(-18 60 80)"/>
  <ellipse cx="1140" cy="560" rx="70" ry="90" fill="#EDE4D4" opacity=".14" transform="rotate(28 1140 560)"/>
  <ellipse cx="980" cy="50" rx="55" ry="70" fill="#C8D4C0" opacity=".1" transform="rotate(-12 980 50)"/>

  <!-- ═══ BOTANICAL ILLUSTRATION ═══ -->
  <g transform="translate(640, 0) scale(1.6)" opacity=".74">
    <path d="M175 540 C175 488 171 438 173 380 C175 326 173 268 173 210" stroke="#B8C4B2" stroke-width="2.8" stroke-linecap="round"/>
    <path d="M173 390 C147 362 113 356 95 328" stroke="#B8C4B2" stroke-width="2" stroke-linecap="round"/>
    <path d="M173 340 C203 310 233 306 247 278" stroke="#C4B8A8" stroke-width="1.8" stroke-linecap="round"/>
    <path d="M173 448 C151 428 125 420 111 398" stroke="#B8C4B2" stroke-width="1.5" stroke-linecap="round"/>
    <path d="M173 412 C147 388 113 382 97 356 C117 358 155 374 173 394" fill="#C8D4C0" opacity=".65"/>
    <path d="M174 358 C203 330 237 326 249 298 C227 302 191 318 174 340" fill="#C8D4C0" opacity=".58"/>
    <path d="M173 462 C151 444 123 440 111 420 C127 422 159 436 173 452" fill="#D0D8C8" opacity=".52"/>
    <path d="M173 296 C189 274 213 270 221 250 C203 254 177 268 173 286" fill="#C8D4C0" opacity=".46"/>
    <ellipse cx="173" cy="186" rx="22" ry="30" fill="#EDE4D4" opacity=".92" transform="rotate(-14 173 186)"/>
    <ellipse cx="173" cy="186" rx="22" ry="30" fill="#E8D8D0" opacity=".87" transform="rotate(22 173 186)"/>
    <ellipse cx="173" cy="186" rx="22" ry="30" fill="#DDD0C8" opacity=".83" transform="rotate(58 173 186)"/>
    <ellipse cx="173" cy="186" rx="22" ry="30" fill="#EDE4D4" opacity=".85" transform="rotate(94 173 186)"/>
    <ellipse cx="173" cy="186" rx="22" ry="30" fill="#E4D8CC" opacity=".8" transform="rotate(130 173 186)"/>
    <circle cx="173" cy="186" r="26" fill="#F5EDE4" opacity=".96"/>
    <circle cx="173" cy="186" r="11" fill="#EAD8CC" opacity=".9"/>
    <circle cx="168" cy="182" r="2.4" fill="#D8C8BC" opacity=".68"/>
    <circle cx="178" cy="184" r="2" fill="#D8C8BC" opacity=".6"/>
    <ellipse cx="95" cy="310" rx="16" ry="21" fill="#C8D4C0" opacity=".88" transform="rotate(-10 95 310)"/>
    <ellipse cx="95" cy="310" rx="16" ry="21" fill="#B8C4B2" opacity=".82" transform="rotate(30 95 310)"/>
    <circle cx="95" cy="310" r="18" fill="#DCE8D4" opacity=".93"/>
    <circle cx="95" cy="310" r="7.5" fill="#C4D4BC" opacity=".88"/>
    <ellipse cx="247" cy="262" rx="15" ry="19" fill="#E8D8D0" opacity=".88" transform="rotate(14 247 262)"/>
    <ellipse cx="247" cy="262" rx="15" ry="19" fill="#E0D0C8" opacity=".82" transform="rotate(54 247 262)"/>
    <circle cx="247" cy="262" r="17" fill="#F0E8E0" opacity=".93"/>
    <circle cx="247" cy="262" r="7" fill="#E4D4C8" opacity=".86"/>
    <ellipse cx="111" cy="386" rx="10" ry="13" fill="#E8D8D0" opacity=".78" transform="rotate(-8 111 386)"/>
    <circle cx="111" cy="386" r="12" fill="#F0E8E0" opacity=".88"/>
    <circle cx="111" cy="386" r="5" fill="#E4D4C8" opacity=".82"/>
    <ellipse cx="147" cy="168" rx="7" ry="10" fill="#E8D8D0" opacity=".6" transform="rotate(-22 147 168)"/>
    <circle cx="147" cy="168" r="8" fill="#F0E4DC" opacity=".74"/>
    <ellipse cx="205" cy="162" rx="7" ry="9" fill="#C4D0BC" opacity=".56" transform="rotate(18 205 162)"/>
    <circle cx="205" cy="162" r="7" fill="#DCE8D4" opacity=".7"/>
    <path d="M103 320 C83 304 67 288 59 266" stroke="#B8C4B2" stroke-width="1.3" stroke-linecap="round" opacity=".52"/>
    <ellipse cx="55" cy="260" rx="8" ry="12" fill="#C8D4C0" opacity=".42" transform="rotate(-18 55 260)"/>
    <path d="M255 270 C275 252 289 234 295 210" stroke="#B8C4B2" stroke-width="1.3" stroke-linecap="round" opacity=".48"/>
    <ellipse cx="297" cy="204" rx="8" ry="11" fill="#C8D4C0" opacity=".4" transform="rotate(20 297 204)"/>
    <path d="M153 540 C149 510 143 480 145 452 L173 446 L201 452 C203 480 197 510 193 540Z" fill="#C4B8A8" opacity=".26"/>
    <path d="M143 462 C155 457 189 457 203 462" stroke="#C4B8A8" stroke-width="1.3" stroke-linecap="round" opacity=".48"/>
  </g>

  <!-- Left-edge fade over botanical -->
  <rect x="620" y="0" width="260" height="630" fill="url(#botFade)"/>

  <!-- ═══ LOGO ICON ═══ -->
  <g transform="translate(120, 188) scale(2.2)">
    <path d="M14 35 C14 27 13.2 19.5 13.5 12" stroke="#B8C4B2" stroke-width="1.4" stroke-linecap="round"/>
    <path d="M13.5 22 C9 18 4 17 2 13 C7 14 12 17.5 13.5 20" fill="#C8D4C0" opacity=".75"/>
    <path d="M13.5 16 C18 12 23 11 25 7 C20 8 15 11.5 13.5 14" fill="#C8D4C0" opacity=".65"/>
    <ellipse cx="13.5" cy="7" rx="5.5" ry="7.5" fill="#EDE4D4" opacity=".88" transform="rotate(-12 13.5 7)"/>
    <ellipse cx="13.5" cy="7" rx="5.5" ry="7.5" fill="#E8D8D0" opacity=".82" transform="rotate(24 13.5 7)"/>
    <ellipse cx="13.5" cy="7" rx="5.5" ry="7.5" fill="#DDD0C8" opacity=".78" transform="rotate(60 13.5 7)"/>
    <ellipse cx="13.5" cy="7" rx="5.5" ry="7.5" fill="#EDE4D4" opacity=".80" transform="rotate(96 13.5 7)"/>
    <circle cx="13.5" cy="7" r="6.5" fill="#F5EDE4" opacity=".94"/>
    <circle cx="13.5" cy="7" r="2.8" fill="#E8D8CC" opacity=".86"/>
  </g>

  <!-- ═══ TYPOGRAPHY via foreignObject (enables web font rendering) ═══ -->
  <foreignObject x="108" y="160" width="680" height="430">
    <div xmlns="http://www.w3.org/1999/xhtml" style="padding:0;margin:0;background:transparent;">
      <p style="font-family:'Jost',sans-serif;font-size:13px;letter-spacing:4px;color:#8C7D6E;margin:0 0 18px 12px;font-weight:300;text-transform:uppercase;">CURATED BLOOM BAR · MASSACHUSETTS</p>
      <p style="font-family:'Great Vibes',cursive;font-size:100px;color:#3C3530;margin:0 0 0 2px;line-height:1.1;">Petal &amp; Stem</p>
      <div style="width:110px;height:1px;background:#C4B8A8;opacity:.7;margin:12px 0 22px 6px;"></div>
      <p style="font-family:'Cormorant Garamond',Georgia,serif;font-size:22px;font-style:italic;font-weight:300;color:#6B5E54;margin:0 0 5px 6px;line-height:1.6;">A curated bloom bar experience for showers,</p>
      <p style="font-family:'Cormorant Garamond',Georgia,serif;font-size:22px;font-style:italic;font-weight:300;color:#6B5E54;margin:0 0 36px 6px;line-height:1.6;">birthdays, events &amp; celebrations.</p>
      <p style="font-family:'Jost',sans-serif;font-size:13px;letter-spacing:2px;color:#9A8E85;margin:0 0 0 6px;font-weight:300;">whitney.foote@gmail.com</p>
    </div>
  </foreignObject>

  <!-- ═══ BORDER FRAME + QUARTER CORNER ACCENTS ═══ -->
  <rect x="18" y="18" width="1164" height="594" stroke="#C4B8A8" stroke-width="1" fill="none" opacity=".3"/>
  <path d="M18 92 L18 18 L92 18" stroke="#C4B8A8" stroke-width="2" fill="none" opacity=".55"/>
  <path d="M1108 612 L1182 612 L1182 538" stroke="#C4B8A8" stroke-width="2" fill="none" opacity=".55"/>
</svg>
